HIERARCHY
ROOT joint_0
{
	OFFSET 0.000000 0.000000 0.000000
	CHANNELS 6 Xposition Yposition Zposition Zrotation Yrotation Xrotation 
	JOINT joint_1
	{
		OFFSET 7.683380 1.521202 101.454956
		CHANNELS 3 Zrotation Yrotation Xrotation
		JOINT joint_2
		{
			OFFSET -4.816528 0.859650 92.807007
			CHANNELS 3 Zrotation Yrotation Xrotation
			JOINT joint_3
			{
				OFFSET -7.237778 1.114670 92.543091
				CHANNELS 3 Zrotation Yrotation Xrotation
				JOINT joint_4
				{
					OFFSET 0.479660 2.971886 127.844971
					CHANNELS 3 Zrotation Yrotation Xrotation
					JOINT joint_5
					{
						OFFSET 15.211349 9.937172 76.390015
						CHANNELS 3 Zrotation Yrotation Xrotation
						End Site
						{
							OFFSET 0.000000 0.000000 0.000000
						}
					}
				}
				JOINT joint_6
				{
					OFFSET 2.887054 -26.053230 72.331909
					CHANNELS 3 Zrotation Yrotation Xrotation
					JOINT joint_7
					{
						OFFSET 10.229767 -132.540291 -13.979004
						CHANNELS 3 Zrotation Yrotation Xrotation
						JOINT joint_8
						{
							OFFSET 17.695633 -10.988861 -262.204956
							CHANNELS 3 Zrotation Yrotation Xrotation
							JOINT joint_9
							{
								OFFSET 11.003433 -0.031860 -255.909973
								CHANNELS 3 Zrotation Yrotation Xrotation
								End Site
								{
									OFFSET 0.000000 0.000000 0.000000
								}
							}
						}
					}
				}
				JOINT joint_10
				{
					OFFSET -2.092239 29.348854 71.062988
					CHANNELS 3 Zrotation Yrotation Xrotation
					JOINT joint_11
					{
						OFFSET -11.853149 131.935837 -17.877075
						CHANNELS 3 Zrotation Yrotation Xrotation
						JOINT joint_12
						{
							OFFSET 14.084503 10.700203 -262.437012
							CHANNELS 3 Zrotation Yrotation Xrotation
							JOINT joint_13
							{
								OFFSET 48.202347 13.087273 -251.229919
								CHANNELS 3 Zrotation Yrotation Xrotation
								End Site
								{
									OFFSET 0.000000 0.000000 0.000000
								}
							}
						}
					}
				}
			}
		}
	}
	JOINT joint_14
	{
		OFFSET 4.150818 -83.296913 -102.580017
		CHANNELS 3 Zrotation Yrotation Xrotation
		JOINT joint_15
		{
			OFFSET -36.423187 -7.342392 -449.858948
			CHANNELS 3 Zrotation Yrotation Xrotation
			JOINT joint_16
			{
				OFFSET -41.100235 -7.280350 -426.202026
				CHANNELS 3 Zrotation Yrotation Xrotation
				JOINT joint_17
				{
					OFFSET 175.972961 13.159744 -75.358000
					CHANNELS 3 Zrotation Yrotation Xrotation
					End Site
					{
						OFFSET 0.000000 0.000000 0.000000
					}
				}
			}
		}
	}
	JOINT joint_18
	{
		OFFSET -9.062592 83.477568 -102.093018
		CHANNELS 3 Zrotation Yrotation Xrotation
		JOINT joint_19
		{
			OFFSET -39.145699 -6.092751 -449.645996
			CHANNELS 3 Zrotation Yrotation Xrotation
			JOINT joint_20
			{
				OFFSET -32.926178 -7.016375 -426.911980
				CHANNELS 3 Zrotation Yrotation Xrotation
				JOINT joint_21
				{
					OFFSET 176.289299 16.780729 -73.883997
					CHANNELS 3 Zrotation Yrotation Xrotation
					End Site
					{
						OFFSET 0.000000 0.000000 0.000000
					}
				}
			}
		}
	}
}
MOTION
Frames: 13
Frame Time: 0.016667
173.670731 -50.842209 1075.942017 -2.893510 -2.629288 0.170043 0.024976 5.658340 2.598796 -0.107090 -1.034091 -0.633881 -0.052116 1.152979 0.382565 -0.362527 0.105983 1.739914 0.000000 0.000000 0.000000 1.171930 -1.562905 -0.370790 -0.070499 -1.590496 -2.435135 -0.050642 -0.211559 -1.202797 0.000000 0.000000 0.000000 -1.528152 -1.148924 -0.138521 -0.396058 -1.090322 -1.215429 -0.183142 7.644504 -3.747040 0.000000 0.000000 0.000000 0.057007 0.478039 -0.914911 -0.028955 1.085867 0.040275 -0.010002 0.294770 -0.026327 0.000000 0.000000 0.000000 0.673480 1.373489 1.057635 0.755942 1.441194 0.081833 0.762558 -0.284160 0.346265 0.000000 0.000000 0.000000 
173.526840 -50.918903 1075.937988 -2.895259 -2.636855 0.170709 0.026591 5.665195 2.600739 -0.105556 -1.034745 -0.635182 -0.050501 1.155520 0.382736 -0.362414 0.101802 1.742061 0.000000 0.000000 0.000000 1.172772 -1.567229 -0.351970 -0.071006 -1.596980 -2.445947 -0.050581 -0.212737 -1.201345 0.000000 0.000000 0.000000 -1.528748 -1.152902 -0.158050 -0.395481 -1.091821 -1.209006 -0.182654 7.643852 -3.743062 0.000000 0.000000 0.000000 0.056310 0.483663 -0.912420 -0.029393 1.074488 0.043144 -0.010378 0.300575 -0.026922 0.000000 0.000000 0.000000 0.675045 1.375628 1.064591 0.758379 1.436779 0.079641 0.764615 -0.275378 0.346287 0.000000 0.000000 0.000000 
173.377518 -50.998844 1075.933960 -2.897060 -2.644542 0.171778 0.029223 5.675312 2.601089 -0.102818 -1.037791 -0.635312 -0.047807 1.158850 0.382956 -0.362448 0.098673 1.744191 0.000000 0.000000 0.000000 1.170334 -1.571924 -0.332074 -0.071469 -1.604306 -2.457247 -0.050542 -0.213370 -1.200411 0.000000 0.000000 0.000000 -1.533383 -1.157593 -0.178469 -0.394951 -1.093350 -1.201897 -0.182305 7.642486 -3.739643 0.000000 0.000000 0.000000 0.055774 0.488939 -0.910275 -0.029722 1.063084 0.046281 -0.010643 0.308270 -0.027611 0.000000 0.000000 0.000000 0.676379 1.377373 1.071438 0.760567 1.432891 0.077396 0.766434 -0.266730 0.346222 0.000000 0.000000 0.000000 
173.221252 -51.084396 1075.930054 -2.898249 -2.652656 0.174032 0.031200 5.689312 2.600141 -0.100690 -1.042819 -0.636306 -0.045724 1.165041 0.383014 -0.361882 0.093061 1.744939 0.000000 0.000000 0.000000 1.169790 -1.578932 -0.309617 -0.071635 -1.613926 -2.467896 -0.050611 -0.211905 -1.201973 0.000000 0.000000 0.000000 -1.536061 -1.164186 -0.198640 -0.394679 -1.096983 -1.193462 -0.182323 7.640239 -3.737823 0.000000 0.000000 0.000000 0.055170 0.492581 -0.908815 -0.030189 1.054475 0.048731 -0.011095 0.319089 -0.028613 0.000000 0.000000 0.000000 0.677521 1.378149 1.077089 0.762367 1.430759 0.075769 0.767947 -0.257676 0.345990 0.000000 0.000000 0.000000 
173.058792 -51.174393 1075.925049 -2.899426 -2.661147 0.177372 0.034206 5.707158 2.596676 -0.097262 -1.048826 -0.635294 -0.042645 1.170517 0.381236 -0.361628 0.089248 1.746045 0.000000 0.000000 0.000000 1.165315 -1.586625 -0.284541 -0.071642 -1.624878 -2.478703 -0.050726 -0.208477 -1.204599 0.000000 0.000000 0.000000 -1.542545 -1.171432 -0.217795 -0.394562 -1.100830 -1.184638 -0.182608 7.636503 -3.736885 0.000000 0.000000 0.000000 0.054883 0.495886 -0.908302 -0.030430 1.046217 0.051215 -0.011341 0.332187 -0.029698 0.000000 0.000000 0.000000 0.678553 1.378568 1.081759 0.763935 1.429506 0.074403 0.769266 -0.248609 0.345675 0.000000 0.000000 0.000000 
172.890900 -51.267628 1075.921021 -2.901019 -2.669035 0.180090 0.036966 5.724160 2.593756 -0.094170 -1.053193 -0.634839 -0.039767 1.176224 0.380407 -0.360989 0.083701 1.746368 0.000000 0.000000 0.000000 1.162223 -1.595014 -0.260843 -0.071578 -1.636153 -2.487862 -0.050842 -0.206345 -1.207254 0.000000 0.000000 0.000000 -1.549333 -1.179377 -0.236910 -0.394432 -1.105377 -1.176248 -0.182832 7.632494 -3.735727 0.000000 0.000000 0.000000 0.054660 0.494802 -0.906986 -0.030736 1.044439 0.053868 -0.011527 0.343991 -0.030661 0.000000 0.000000 0.000000 0.679706 1.376568 1.087489 0.765650 1.431197 0.072911 0.770770 -0.240561 0.345534 0.000000 0.000000 0.000000 
172.714432 -51.363773 1075.920044 -2.904583 -2.676507 0.181113 0.039523 5.741735 2.592617 -0.091453 -1.056470 -0.634891 -0.037114 1.180846 0.380664 -0.359709 0.076545 1.744580 0.000000 0.000000 0.000000 1.160641 -1.603850 -0.239856 -0.071452 -1.647296 -2.494238 -0.050948 -0.207189 -1.209821 0.000000 0.000000 0.000000 -1.554657 -1.187806 -0.256097 -0.394199 -1.110664 -1.168756 -0.182821 7.628304 -3.733390 0.000000 0.000000 0.000000 0.055049 0.486130 -0.903747 -0.030644 1.055535 0.056867 -0.011068 0.351334 -0.031014 0.000000 0.000000 0.000000 0.681679 1.371436 1.095362 0.768275 1.437575 0.071230 0.773222 -0.234023 0.345934 0.000000 0.000000 0.000000 
172.529175 -51.461853 1075.920044 -2.909346 -2.683714 0.180702 0.042963 5.760852 2.593155 -0.087924 -1.059276 -0.634027 -0.033871 1.184760 0.378803 -0.358298 0.066467 1.744095 0.000000 0.000000 0.000000 1.156653 -1.613237 -0.219826 -0.071182 -1.658965 -2.497772 -0.051051 -0.209817 -1.212409 0.000000 0.000000 0.000000 -1.562401 -1.196944 -0.272677 -0.393901 -1.116745 -1.163336 -0.182539 7.623811 -3.729620 0.000000 0.000000 0.000000 0.055841 0.471193 -0.898775 -0.030289 1.077158 0.059857 -0.010169 0.355137 -0.030914 0.000000 0.000000 0.000000 0.683981 1.363460 1.104996 0.771270 1.448369 0.069636 0.776118 -0.229232 0.346685 0.000000 0.000000 0.000000 
172.344345 -51.561882 1075.920044 -2.912980 -2.691273 0.180717 0.044928 5.780093 2.592953 -0.085835 -1.063057 -0.633447 -0.031984 1.188922 0.377903 -0.357181 0.058692 1.743573 0.000000 0.000000 0.000000 1.155007 -1.622675 -0.200346 -0.070988 -1.670387 -2.501329 -0.051108 -0.213341 -1.213920 0.000000 0.000000 0.000000 -1.568505 -1.206140 -0.289677 -0.393577 -1.122949 -1.156638 -0.182308 7.620253 -3.726808 0.000000 0.000000 0.000000 0.056049 0.456393 -0.894334 -0.030608 1.099763 0.063234 -0.009860 0.358126 -0.031006 0.000000 0.000000 0.000000 0.686226 1.355198 1.114318 0.774164 1.460230 0.068050 0.778934 -0.224647 0.347422 0.000000 0.000000 0.000000 
172.167755 -51.662155 1075.918945 -2.912735 -2.699751 0.181912 0.045025 5.797167 2.591499 -0.085549 -1.065929 -0.633397 -0.031767 1.192673 0.378005 -0.356301 0.053611 1.742426 0.000000 0.000000 0.000000 1.152852 -1.631785 -0.180442 -0.070981 -1.681675 -2.506513 -0.051035 -0.216745 -1.212327 0.000000 0.000000 0.000000 -1.574455 -1.215318 -0.307332 -0.393122 -1.128890 -1.147866 -0.182041 7.618470 -3.724781 0.000000 0.000000 0.000000 0.054811 0.446414 -0.891385 -0.032346 1.116724 0.066961 -0.010972 0.361785 -0.031755 0.000000 0.000000 0.000000 0.687364 1.348166 1.122541 0.775897 1.471916 0.066256 0.780604 -0.219443 0.347619 0.000000 0.000000 0.000000 
171.995499 -51.763512 1075.916992 -2.909819 -2.708800 0.183805 0.042889 5.813622 2.589015 -0.087391 -1.069757 -0.632792 -0.033788 1.196774 0.377476 -0.355916 0.050940 1.742193 0.000000 0.000000 0.000000 1.153430 -1.640779 -0.160182 -0.071158 -1.692644 -2.512689 -0.050829 -0.220662 -1.207578 0.000000 0.000000 0.000000 -1.578318 -1.224213 -0.324097 -0.392663 -1.134778 -1.137643 -0.181881 7.617769 -3.724156 0.000000 0.000000 0.000000 0.052512 0.438488 -0.889285 -0.035174 1.132071 0.070960 -0.013127 0.365105 -0.032925 0.000000 0.000000 0.000000 0.687953 1.341344 1.130167 0.777022 1.484394 0.064493 0.781703 -0.214585 0.347612 0.000000 0.000000 0.000000 
171.823257 -51.864868 1075.912964 -2.907219 -2.717781 0.185649 0.040790 5.829467 2.586844 -0.089196 -1.074485 -0.631986 -0.035787 1.201808 0.377232 -0.355731 0.049753 1.741960 0.000000 0.000000 0.000000 1.154283 -1.650211 -0.139203 -0.071356 -1.704184 -2.520272 -0.050656 -0.223933 -1.203599 0.000000 0.000000 0.000000 -1.581033 -1.233428 -0.342220 -0.392200 -1.140970 -1.126870 -0.181740 7.616666 -3.723331 0.000000 0.000000 0.000000 0.050178 0.432140 -0.887079 -0.037944 1.144129 0.074918 -0.015291 0.369637 -0.034189 0.000000 0.000000 0.000000 0.688969 1.335432 1.137896 0.778627 1.495185 0.062632 0.783234 -0.209627 0.347775 0.000000 0.000000 0.000000 
171.646454 -51.964165 1075.905029 -2.905627 -2.726972 0.186830 0.039292 5.845760 2.588039 -0.090723 -1.079077 -0.633504 -0.037270 1.206527 0.377649 -0.355892 0.049743 1.742637 0.000000 0.000000 0.000000 1.155419 -1.660922 -0.115606 -0.071581 -1.717484 -2.531882 -0.050566 -0.224499 -1.201495 0.000000 0.000000 0.000000 -1.581150 -1.243508 -0.362619 -0.391750 -1.148101 -1.115257 -0.181596 7.615414 -3.721982 0.000000 0.000000 0.000000 0.048322 0.428593 -0.884123 -0.040001 1.150232 0.078539 -0.016912 0.376955 -0.035430 0.000000 0.000000 0.000000 0.690403 1.331837 1.146059 0.780719 1.501623 0.061403 0.785214 -0.203706 0.348035 0.000000 0.000000 0.000000 
